<?xml version="1.0" encoding="UTF-8"?>
<!DOCTYPE svg PUBLIC "-//W3C//DTD SVG 1.1//EN" "http://www.w3.org/Graphics/SVG/1.1/DTD/svg11.dtd">
<svg xmlns="http://www.w3.org/2000/svg" version="1.1" width="591px" height="422px" style="shape-rendering:geometricPrecision; text-rendering:geometricPrecision; image-rendering:optimizeQuality; fill-rule:evenodd; clip-rule:evenodd" xmlns:xlink="http://www.w3.org/1999/xlink">
<g><path style="opacity:0.233" fill="#040404" d="M 207.5,148.5 C 208.499,192.664 208.832,236.997 208.5,281.5C 216.833,281.5 225.167,281.5 233.5,281.5C 233.5,262.833 233.5,244.167 233.5,225.5C 237.007,224.994 240.174,225.66 243,227.5C 253.482,244.963 263.316,262.797 272.5,281C 281.827,281.5 291.161,281.666 300.5,281.5C 291.498,261.165 280.665,241.831 268,223.5C 267.517,222.552 267.351,221.552 267.5,220.5C 287.694,213.796 296.528,199.796 294,178.5C 288.938,157.212 275.438,146.879 253.5,147.5C 239.343,146.504 225.01,146.171 210.5,146.5C 228.329,145.338 246.329,145.171 264.5,146C 292.549,151.073 305.049,167.907 302,196.5C 301.044,202.743 298.711,208.41 295,213.5C 290.209,219.135 284.709,223.801 278.5,227.5C 287.586,242.67 296.419,258.003 305,273.5C 305.333,268.5 305.667,263.5 306,258.5C 306.278,257.584 306.778,256.918 307.5,256.5C 307.5,264.833 307.5,273.167 307.5,281.5C 314.833,281.5 322.167,281.5 329.5,281.5C 329.5,272.833 329.5,264.167 329.5,255.5C 322.646,255.824 315.979,255.491 309.5,254.5C 317.087,253.369 324.754,253.202 332.5,254C 334.286,254.785 335.786,255.951 337,257.5C 337.333,222.167 337.667,186.833 338,151.5C 338.232,150.263 338.732,149.263 339.5,148.5C 339.5,192.833 339.5,237.167 339.5,281.5C 356.17,281.667 372.837,281.5 389.5,281C 420.367,278.482 433.867,261.982 430,231.5C 425.722,220.727 417.889,214.06 406.5,211.5C 422.527,203.447 429.027,190.447 426,172.5C 420.652,158.499 410.486,150.332 395.5,148C 377.17,147.5 358.836,147.333 340.5,147.5C 340.918,146.778 341.584,146.278 342.5,146C 361.167,145.333 379.833,145.333 398.5,146C 427.36,151.556 438.86,168.723 433,197.5C 430.392,203.716 426.559,209.049 421.5,213.5C 436.073,223.169 442.406,236.836 440.5,254.5C 447.185,253.134 453.852,253.3 460.5,255C 462.487,256.319 463.654,258.152 464,260.5C 464.383,259.944 464.883,259.611 465.5,259.5C 464.168,265.828 462.834,272.161 461.5,278.5C 464.687,279.865 468.02,280.699 471.5,281C 484.856,282.76 498.19,282.76 511.5,281C 537.153,274.33 547.986,257.83 544,231.5C 541.207,221.037 535.04,213.204 525.5,208C 515.711,203.606 506.045,198.939 496.5,194C 487.612,186.007 487.279,177.674 495.5,169C 509.147,163.921 522.48,164.754 535.5,171.5C 538.13,164.357 540.13,157.024 541.5,149.5C 527.084,145.888 512.417,144.554 497.5,145.5C 514.015,142.186 530.349,143.353 546.5,149C 548.066,150.684 549.066,152.684 549.5,155C 548.079,161.183 546.579,167.349 545,173.5C 542.565,178.224 538.731,179.724 533.5,178C 524.756,174.807 515.756,173.807 506.5,175C 498.218,177.64 496.051,182.807 500,190.5C 501.41,191.787 502.91,192.954 504.5,194C 515.926,198.914 526.926,204.581 537.5,211C 552.888,225.305 557.054,242.471 550,262.5C 544.381,274.119 535.547,282.285 523.5,287C 527.801,286.637 532.134,286.637 536.5,287C 542.385,287.944 544.218,291.111 542,296.5C 541,297.167 540,297.833 539,298.5C 538.87,302.951 538.204,307.284 537,311.5C 533.259,314.296 529.759,313.963 526.5,310.5C 522.767,314.033 518.767,314.367 514.5,311.5C 511.424,313.787 508.091,314.12 504.5,312.5C 498.275,315.369 492.275,315.036 486.5,311.5C 479.757,315.751 473.257,315.417 467,310.5C 461,315.833 455,315.833 449,310.5C 443.725,314.739 438.058,315.405 432,312.5C 427.595,314.152 423.595,313.485 420,310.5C 418.147,312.187 415.981,313.187 413.5,313.5C 407.415,311.58 406.082,307.913 409.5,302.5C 409.238,303.978 409.571,305.311 410.5,306.5C 412.111,305.68 412.778,304.346 412.5,302.5C 415.518,302.335 418.518,302.502 421.5,303C 422.167,304 422.833,305 423.5,306C 424.332,306.688 424.998,306.521 425.5,305.5C 423.577,299.354 420.91,293.687 417.5,288.5C 419.288,287.378 421.288,287.211 423.5,288C 425.402,289.73 427.069,291.563 428.5,293.5C 427.25,303.856 431.584,307.69 441.5,305C 443.037,303.89 443.703,302.39 443.5,300.5C 440.843,301.392 438.343,302.726 436,304.5C 434.395,303.899 433.062,302.899 432,301.5C 430.773,297.409 431.606,293.909 434.5,291C 435.833,290.333 437.167,290.333 438.5,291C 439.772,293.261 441.438,293.761 443.5,292.5C 441.074,289.083 437.741,287.75 433.5,288.5C 432.922,282.85 432.255,277.183 431.5,271.5C 423.911,279.246 414.911,284.746 404.5,288C 408.573,291.656 408.406,295.156 404,298.5C 403.667,301.833 403.333,305.167 403,308.5C 401.551,313.218 398.385,314.718 393.5,313C 392.667,312.167 391.833,311.333 391,310.5C 387.312,315.218 383.312,315.551 379,311.5C 378.5,312 378,312.5 377.5,313C 368.752,314.955 360.085,314.789 351.5,312.5C 343.198,314.729 334.865,314.729 326.5,312.5C 321.5,315.167 316.5,315.167 311.5,312.5C 308.537,314.001 305.37,314.667 302,314.5C 295.754,314.44 289.754,313.44 284,311.5C 282.092,312.454 280.092,313.121 278,313.5C 275.333,312.167 272.667,310.833 270,309.5C 265.927,313.891 261.26,314.558 256,311.5C 252.667,314.167 249.333,314.167 246,311.5C 240,315.5 234,315.5 228,311.5C 224.402,314.089 220.736,314.089 217,311.5C 211.554,315.012 207.887,313.679 206,307.5C 205.333,302.833 205.333,298.167 206,293.5C 206.232,292.263 206.732,291.263 207.5,290.5C 207.5,295.833 207.5,301.167 207.5,306.5C 208.5,306.5 209.5,306.5 210.5,306.5C 210.334,302.486 210.501,298.486 211,294.5C 213.583,297.997 215.916,301.664 218,305.5C 219.011,306.337 220.178,306.67 221.5,306.5C 221.5,300.5 221.5,294.5 221.5,288.5C 220.5,288.5 219.5,288.5 218.5,288.5C 218.5,290.5 218.5,292.5 218.5,294.5C 218.795,296.735 218.461,298.735 217.5,300.5C 215.258,297.021 213.258,293.354 211.5,289.5C 210.675,288.614 209.675,288.281 208.5,288.5C 207.123,283.614 206.289,278.614 206,273.5C 204.301,302.865 188.801,318.699 159.5,321C 125.17,323.878 90.8365,323.545 56.5,320C 32.6669,315.831 19.5002,301.664 17,277.5C 14.1138,246.864 13.7805,216.197 16,185.5C 16.1823,180.253 17.0157,175.253 18.5,170.5C 16.5006,198.791 16.0006,227.124 17,255.5C 17.1512,262.068 17.9846,268.401 19.5,274.5C 19.8914,286.383 24.558,296.217 33.5,304C 34.745,304.791 36.0783,305.291 37.5,305.5C 38.0577,306.79 39.0577,307.623 40.5,308C 51.46,312.042 62.7933,314.042 74.5,314C 97.1667,314.667 119.833,314.667 142.5,314C 147.019,313.825 151.353,313.325 155.5,312.5C 175.239,312.239 188.406,302.906 195,284.5C 196.705,276.565 198.038,268.565 199,260.5C 199.667,235.167 199.667,209.833 199,184.5C 198.574,171.113 194.907,158.779 188,147.5C 184.039,143.028 179.206,140.028 173.5,138.5C 171.266,136.554 168.599,135.387 165.5,135C 158.846,133.927 152.18,132.927 145.5,132C 120.169,131.5 94.8355,131.333 69.5,131.5C 74.6509,130.673 79.9842,130.173 85.5,130C 102.833,129.333 120.167,129.333 137.5,130C 150.329,130.452 162.996,132.118 175.5,135C 189.764,139.597 198.93,149.097 203,163.5C 204.256,168.448 205.256,173.448 206,178.5C 206.215,168.454 206.715,158.454 207.5,148.5 Z M 266.5,195.5 C 263.835,199.673 260.169,202.673 255.5,204.5C 250.833,204.5 246.167,204.5 241.5,204.5C 241.5,194.5 241.5,184.5 241.5,174.5C 248.856,173.768 255.856,174.934 262.5,178C 266.754,183.182 268.087,189.015 266.5,195.5 Z M 398.5,193.5 C 396.046,196.557 393.046,198.891 389.5,200.5C 383.87,201.292 378.203,201.625 372.5,201.5C 372.5,192.5 372.5,183.5 372.5,174.5C 378.176,174.334 383.843,174.501 389.5,175C 398.494,178.113 401.494,184.28 398.5,193.5 Z M 402.5,251.5 C 401.559,253.772 400.226,255.772 398.5,257.5C 395.341,258.331 392.341,259.331 389.5,260.5C 383.833,260.5 378.167,260.5 372.5,260.5C 372.5,250.5 372.5,240.5 372.5,230.5C 379.175,230.334 385.842,230.5 392.5,231C 402.405,234.52 405.738,241.353 402.5,251.5 Z M 273.5,288.5 C 273.5,289.167 273.5,289.833 273.5,290.5C 272.717,292.343 272.05,294.343 271.5,296.5C 270.675,297.386 269.675,297.719 268.5,297.5C 269.014,291.03 266.348,288.03 260.5,288.5C 259.209,288.263 258.209,288.596 257.5,289.5C 254.551,287.501 251.551,287.168 248.5,288.5C 247.508,288.328 246.842,288.662 246.5,289.5C 244.703,288.27 242.703,287.604 240.5,287.5C 241.293,269.864 241.793,252.198 242,234.5C 252.135,250.656 261.468,267.322 270,284.5C 271.032,286.027 272.199,287.36 273.5,288.5 Z M 337.5,284.5 C 338.776,285.386 338.776,286.386 337.5,287.5C 336.438,286.575 336.438,285.575 337.5,284.5 Z M 464.5,287.5 C 466.292,287.366 467.958,287.699 469.5,288.5C 469.5,289.167 469.167,289.5 468.5,289.5C 466.62,289.771 465.287,289.104 464.5,287.5 Z"/></g>
<g><path style="opacity:0.007" fill="#030303" d="M 69.5,131.5 C 69.5,131.833 69.5,132.167 69.5,132.5C 64.8478,132.998 60.1811,133.331 55.5,133.5C 59.9426,132.199 64.6093,131.532 69.5,131.5 Z"/></g>
<g><path style="opacity:0.516" fill="#622067" d="M 69.5,132.5 C 69.5,132.167 69.5,131.833 69.5,131.5C 94.8355,131.333 120.169,131.5 145.5,132C 152.18,132.927 158.846,133.927 165.5,135C 168.599,135.387 171.266,136.554 173.5,138.5C 163.556,136.362 153.556,134.528 143.5,133C 132.839,132.5 122.172,132.333 111.5,132.5C 97.5,132.5 83.5,132.5 69.5,132.5 Z"/></g>
<g><path style="opacity:0.827" fill="#491d4d" d="M 69.5,132.5 C 62.7341,134.226 55.7341,135.393 48.5,136C 45.583,138.431 42.2497,139.598 38.5,139.5C 43.5349,135.931 49.2016,133.931 55.5,133.5C 60.1811,133.331 64.8478,132.998 69.5,132.5 Z"/></g>
<g><path style="opacity:1" fill="#74227f" d="M 69.5,132.5 C 83.5,132.5 97.5,132.5 111.5,132.5C 99.3401,133.331 87.0068,133.831 74.5,134C 70.9627,134.145 67.6294,134.978 64.5,136.5C 65.376,137.251 66.376,137.751 67.5,138C 64.6492,139.289 61.6492,139.789 58.5,139.5C 58.5,138.5 58.5,137.5 58.5,136.5C 53.5575,136.736 48.8909,137.902 44.5,140C 45.0253,140.692 45.6919,141.192 46.5,141.5C 50.0681,139.064 53.7348,139.064 57.5,141.5C 56.91,142.799 55.91,143.632 54.5,144C 55.3366,145.011 55.67,146.178 55.5,147.5C 56.8333,147.5 58.1667,147.5 59.5,147.5C 59.6816,149.591 59.3482,151.591 58.5,153.5C 60.4012,154.231 62.4012,154.231 64.5,153.5C 64.297,155.638 63.297,157.305 61.5,158.5C 66.5376,163.536 71.2043,168.869 75.5,174.5C 68.0351,167.536 60.7018,160.369 53.5,153C 45.7894,148.56 39.6227,150.06 35,157.5C 33.7581,162.694 34.7581,167.36 38,171.5C 44.0362,177.369 49.8695,183.369 55.5,189.5C 50.2543,185.624 45.0877,181.624 40,177.5C 38.3059,179.683 38.1393,182.016 39.5,184.5C 41.8537,185.06 44.187,185.727 46.5,186.5C 45.259,189.144 43.259,189.977 40.5,189C 38.6759,187.011 36.6759,185.177 34.5,183.5C 32.8595,178.933 34.5262,176.1 39.5,175C 37.3333,173.5 35.5,171.667 34,169.5C 33.2608,163.442 33.5941,157.442 35,151.5C 38.1988,152.236 38.3655,151.403 35.5,149C 35.8333,148.667 36.1667,148.333 36.5,148C 31.5124,145.597 28.0124,147.097 26,152.5C 23.1136,157.954 22.7802,163.621 25,169.5C 27.3028,171.338 27.9694,173.672 27,176.5C 24.6243,175.624 23.1243,173.958 22.5,171.5C 22.1667,172.167 21.8333,172.833 21.5,173.5C 22.1667,175.167 22.8333,176.833 23.5,178.5C 23.1758,180.569 22.3425,180.902 21,179.5C 20.1779,181.788 19.5112,184.122 19,186.5C 18.2721,215.842 18.4387,245.176 19.5,274.5C 17.9846,268.401 17.1512,262.068 17,255.5C 16.0006,227.124 16.5006,198.791 18.5,170.5C 18.2322,168.901 18.5655,167.568 19.5,166.5C 20.9238,164.485 21.5905,162.152 21.5,159.5C 24.3142,150.357 29.9809,143.69 38.5,139.5C 42.2497,139.598 45.583,138.431 48.5,136C 55.7341,135.393 62.7341,134.226 69.5,132.5 Z"/></g>
<g><path style="opacity:0.999" fill="#fafafa" d="M 496.5,145.5 C 496.833,145.5 497.167,145.5 497.5,145.5C 512.417,144.554 527.084,145.888 541.5,149.5C 540.13,157.024 538.13,164.357 535.5,171.5C 522.48,164.754 509.147,163.921 495.5,169C 487.279,177.674 487.612,186.007 496.5,194C 506.045,198.939 515.711,203.606 525.5,208C 535.04,213.204 541.207,221.037 544,231.5C 547.986,257.83 537.153,274.33 511.5,281C 498.19,282.76 484.856,282.76 471.5,281C 468.02,280.699 464.687,279.865 461.5,278.5C 462.834,272.161 464.168,265.828 465.5,259.5C 465.427,257.973 466.094,256.973 467.5,256.5C 480.153,261.355 493.153,262.522 506.5,260C 507.056,259.617 507.389,259.117 507.5,258.5C 507.833,258.5 508.167,258.5 508.5,258.5C 512.099,257.897 514.432,255.897 515.5,252.5C 515.5,252.167 515.5,251.833 515.5,251.5C 520.241,241.08 517.574,232.913 507.5,227C 497.927,223.214 488.593,218.88 479.5,214C 465.72,203.1 460.72,188.934 464.5,171.5C 464.796,169.597 465.463,167.93 466.5,166.5C 467.906,166.027 468.573,165.027 468.5,163.5C 472.276,157.057 477.61,152.39 484.5,149.5C 488.915,149.139 492.915,147.806 496.5,145.5 Z"/></g>
<g><path style="opacity:0.999" fill="#fafafa" d="M 253.5,147.5 C 275.438,146.879 288.938,157.212 294,178.5C 296.528,199.796 287.694,213.796 267.5,220.5C 267.351,221.552 267.517,222.552 268,223.5C 280.665,241.831 291.498,261.165 300.5,281.5C 291.161,281.666 281.827,281.5 272.5,281C 263.316,262.797 253.482,244.963 243,227.5C 240.174,225.66 237.007,224.994 233.5,225.5C 232.503,243.659 232.17,261.992 232.5,280.5C 224.833,280.5 217.167,280.5 209.5,280.5C 209.5,236.167 209.5,191.833 209.5,147.5C 224.167,147.5 238.833,147.5 253.5,147.5 Z M 266.5,195.5 C 263.835,199.673 260.169,202.673 255.5,204.5C 250.833,204.5 246.167,204.5 241.5,204.5C 241.5,194.5 241.5,184.5 241.5,174.5C 248.856,173.768 255.856,174.934 262.5,178C 266.754,183.182 268.087,189.015 266.5,195.5 Z"/></g>
<g><path style="opacity:0.999" fill="#faf9fa" d="M 340.5,147.5 C 358.836,147.333 377.17,147.5 395.5,148C 410.486,150.332 420.652,158.499 426,172.5C 429.027,190.447 422.527,203.447 406.5,211.5C 417.889,214.06 425.722,220.727 430,231.5C 433.867,261.982 420.367,278.482 389.5,281C 372.837,281.5 356.17,281.667 339.5,281.5C 339.5,237.167 339.5,192.833 339.5,148.5C 339.5,147.833 339.833,147.5 340.5,147.5 Z M 398.5,193.5 C 396.046,196.557 393.046,198.891 389.5,200.5C 383.87,201.292 378.203,201.625 372.5,201.5C 372.5,192.5 372.5,183.5 372.5,174.5C 378.176,174.334 383.843,174.501 389.5,175C 398.494,178.113 401.494,184.28 398.5,193.5 Z M 402.5,251.5 C 401.559,253.772 400.226,255.772 398.5,257.5C 395.341,258.331 392.341,259.331 389.5,260.5C 383.833,260.5 378.167,260.5 372.5,260.5C 372.5,250.5 372.5,240.5 372.5,230.5C 379.175,230.334 385.842,230.5 392.5,231C 402.405,234.52 405.738,241.353 402.5,251.5 Z"/></g>
<g><path style="opacity:0.188" fill="#6b6668" d="M 496.5,145.5 C 492.915,147.806 488.915,149.139 484.5,149.5C 488.216,147.595 492.216,146.261 496.5,145.5 Z"/></g>
<g><path style="opacity:0.11" fill="#231625" d="M 21.5,159.5 C 21.5905,162.152 20.9238,164.485 19.5,166.5C 19.4095,163.848 20.0762,161.515 21.5,159.5 Z"/></g>
<g><path style="opacity:0.263" fill="#706e70" d="M 468.5,163.5 C 468.573,165.027 467.906,166.027 466.5,166.5C 466.427,164.973 467.094,163.973 468.5,163.5 Z"/></g>
<g><path style="opacity:0.304" fill="#010101" d="M 266.5,195.5 C 268.087,189.015 266.754,183.182 262.5,178C 255.856,174.934 248.856,173.768 241.5,174.5C 241.5,184.5 241.5,194.5 241.5,204.5C 246.167,204.5 250.833,204.5 255.5,204.5C 254.391,205.29 253.058,205.79 251.5,206C 245.509,206.499 239.509,206.666 233.5,206.5C 233.5,193.167 233.5,179.833 233.5,166.5C 240.175,166.334 246.842,166.5 253.5,167C 266.432,170.682 271.266,179.182 268,192.5C 267.768,193.737 267.268,194.737 266.5,195.5 Z"/></g>
<g><path style="opacity:0.31" fill="#050505" d="M 398.5,193.5 C 401.494,184.28 398.494,178.113 389.5,175C 383.843,174.501 378.176,174.334 372.5,174.5C 372.5,183.5 372.5,192.5 372.5,201.5C 378.203,201.625 383.87,201.292 389.5,200.5C 387.123,201.887 384.457,202.721 381.5,203C 375.843,203.499 370.176,203.666 364.5,203.5C 364.5,191.167 364.5,178.833 364.5,166.5C 372.507,166.334 380.507,166.5 388.5,167C 398.902,169.964 403.069,176.797 401,187.5C 400.76,189.852 399.927,191.852 398.5,193.5 Z"/></g>
<g><path style="opacity:0.132" fill="#090909" d="M 464.5,171.5 C 460.72,188.934 465.72,203.1 479.5,214C 488.593,218.88 497.927,223.214 507.5,227C 517.574,232.913 520.241,241.08 515.5,251.5C 516.902,245.945 515.569,241.112 511.5,237C 502.127,231.762 492.461,227.096 482.5,223C 463.852,210.222 457.852,193.055 464.5,171.5 Z"/></g>
<g><path style="opacity:1" fill="#7b1c89" d="M 111.5,132.5 C 122.172,132.333 132.839,132.5 143.5,133C 153.556,134.528 163.556,136.362 173.5,138.5C 179.206,140.028 184.039,143.028 188,147.5C 194.907,158.779 198.574,171.113 199,184.5C 199.667,209.833 199.667,235.167 199,260.5C 198.038,268.565 196.705,276.565 195,284.5C 188.406,302.906 175.239,312.239 155.5,312.5C 124.159,314 92.8253,313.833 61.5,312C 59.3921,311.64 57.3921,310.973 55.5,310C 58.2263,309.818 60.8929,309.318 63.5,308.5C 57.7047,307.987 52.038,307.987 46.5,308.5C 44.5749,308.41 43.4083,307.41 43,305.5C 41.2245,306.536 39.3911,306.536 37.5,305.5C 36.0783,305.291 34.745,304.791 33.5,304C 24.558,296.217 19.8914,286.383 19.5,274.5C 18.4387,245.176 18.2721,215.842 19,186.5C 19.5112,184.122 20.1779,181.788 21,179.5C 22.3425,180.902 23.1758,180.569 23.5,178.5C 22.8333,176.833 22.1667,175.167 21.5,173.5C 21.8333,172.833 22.1667,172.167 22.5,171.5C 23.1243,173.958 24.6243,175.624 27,176.5C 27.9694,173.672 27.3028,171.338 25,169.5C 22.7802,163.621 23.1136,157.954 26,152.5C 28.0124,147.097 31.5124,145.597 36.5,148C 36.1667,148.333 35.8333,148.667 35.5,149C 38.3655,151.403 38.1988,152.236 35,151.5C 33.5941,157.442 33.2608,163.442 34,169.5C 35.5,171.667 37.3333,173.5 39.5,175C 34.5262,176.1 32.8595,178.933 34.5,183.5C 36.6759,185.177 38.6759,187.011 40.5,189C 43.259,189.977 45.259,189.144 46.5,186.5C 44.187,185.727 41.8537,185.06 39.5,184.5C 38.1393,182.016 38.3059,179.683 40,177.5C 45.0877,181.624 50.2543,185.624 55.5,189.5C 56.3726,192.377 58.0392,194.71 60.5,196.5C 53.8581,197.331 47.1915,197.831 40.5,198C 34.6443,200.537 31.9776,205.037 32.5,211.5C 33.0639,213.819 33.5639,216.153 34,218.5C 35.9252,219.88 37.7585,221.38 39.5,223C 47.4489,224.156 55.4489,224.822 63.5,225C 56.8333,225.333 50.1667,225.667 43.5,226C 41.4556,226.498 40.1223,227.665 39.5,229.5C 32.8686,236.303 32.8686,243.136 39.5,250C 40.745,250.791 42.0783,251.291 43.5,251.5C 50.1667,252.167 56.8333,252.833 63.5,253.5C 53.8386,262.328 44.672,271.662 36,281.5C 32.5248,294.352 37.3581,300.185 50.5,299C 56.9872,294.677 62.6539,289.51 67.5,283.5C 71.4642,282.707 74.4642,280.54 76.5,277C 77.7932,276.51 79.1266,276.343 80.5,276.5C 80.0202,282.99 80.6869,289.323 82.5,295.5C 82.9569,296.298 83.6236,296.631 84.5,296.5C 84.7512,298.17 85.4178,299.67 86.5,301C 89.2241,301.27 91.8908,301.77 94.5,302.5C 98.6178,300.026 102.784,297.692 107,295.5C 107.54,298.361 108.54,301.028 110,303.5C 111.674,305.009 113.34,305.676 115,305.5C 115.684,304.216 115.517,303.049 114.5,302C 119.5,301.667 124.5,301.333 129.5,301C 131.792,299.71 133.792,298.043 135.5,296C 138.586,297.463 140.92,296.629 142.5,293.5C 141.625,291.227 139.958,290.227 137.5,290.5C 136.504,285.537 136.337,280.537 137,275.5C 139.606,277.956 142.439,279.956 145.5,281.5C 145.33,282.822 145.663,283.989 146.5,285C 148.42,286.122 150.42,286.956 152.5,287.5C 156.665,291.497 160.998,295.33 165.5,299C 175.172,301.158 180.505,297.324 181.5,287.5C 181.522,285.035 181.022,282.702 180,280.5C 170.5,271 161,261.5 151.5,252C 158.833,251.667 166.167,251.333 173.5,251C 176.233,250.096 178.567,248.596 180.5,246.5C 182.931,245.393 183.931,243.393 183.5,240.5C 182.996,232.16 178.662,226.993 170.5,225C 180.529,222.016 184.696,215.516 183,205.5C 182.578,203.574 181.411,202.574 179.5,202.5C 178.833,202.5 178.5,202.167 178.5,201.5C 178.406,198.932 177.072,197.432 174.5,197C 168.804,196.83 163.138,196.33 157.5,195.5C 159.158,193.677 160.991,192.01 163,190.5C 163.608,188.846 164.108,187.179 164.5,185.5C 169.464,180.035 174.63,174.702 180,169.5C 184.794,160.916 182.627,154.749 173.5,151C 170.833,150.333 168.167,150.333 165.5,151C 159.997,155.671 154.664,160.504 149.5,165.5C 148.167,165.5 146.833,165.5 145.5,165.5C 145.5,166.5 145.5,167.5 145.5,168.5C 144.5,168.5 143.5,168.5 142.5,168.5C 142.487,171.361 141.321,172.361 139,171.5C 138.751,172.624 138.251,173.624 137.5,174.5C 136.669,168.193 136.169,161.859 136,155.5C 134.164,154.331 132.998,152.664 132.5,150.5C 128.957,149.659 125.457,148.659 122,147.5C 118.41,149.882 114.577,151.549 110.5,152.5C 110.5,154.833 110.5,157.167 110.5,159.5C 109.341,169.992 109.175,180.659 110,191.5C 110.333,192.833 110.667,194.167 111,195.5C 112.131,194.396 112.965,194.729 113.5,196.5C 110.567,198.738 110.901,199.738 114.5,199.5C 114.682,201.591 114.348,203.591 113.5,205.5C 112.284,206.096 110.951,206.263 109.5,206C 107.061,208.19 104.727,210.357 102.5,212.5C 102.158,213.338 101.492,213.672 100.5,213.5C 97.9512,213.441 95.9512,214.441 94.5,216.5C 93.5344,214.604 93.2011,212.604 93.5,210.5C 96.4824,210.037 99.4824,209.704 102.5,209.5C 102.5,207.833 102.5,206.167 102.5,204.5C 104.467,204.739 106.301,204.406 108,203.5C 108.783,201.681 108.283,200.348 106.5,199.5C 104.035,200.132 102.369,201.632 101.5,204C 99.5643,204.813 97.5643,205.313 95.5,205.5C 95.5,204.167 95.5,202.833 95.5,201.5C 97.3797,201.771 98.713,201.104 99.5,199.5C 103.471,196.908 105.971,193.241 107,188.5C 107.811,177.453 107.644,166.453 106.5,155.5C 100.702,148.125 93.7015,146.625 85.5,151C 83.3456,152.32 81.8456,154.153 81,156.5C 80.5005,162.825 80.3338,169.158 80.5,175.5C 78.7839,175.371 77.1172,175.038 75.5,174.5C 71.2043,168.869 66.5376,163.536 61.5,158.5C 63.297,157.305 64.297,155.638 64.5,153.5C 62.4012,154.231 60.4012,154.231 58.5,153.5C 59.3482,151.591 59.6816,149.591 59.5,147.5C 58.1667,147.5 56.8333,147.5 55.5,147.5C 55.67,146.178 55.3366,145.011 54.5,144C 55.91,143.632 56.91,142.799 57.5,141.5C 53.7348,139.064 50.0681,139.064 46.5,141.5C 45.6919,141.192 45.0253,140.692 44.5,140C 48.8909,137.902 53.5575,136.736 58.5,136.5C 58.5,137.5 58.5,138.5 58.5,139.5C 61.6492,139.789 64.6492,139.289 67.5,138C 66.376,137.751 65.376,137.251 64.5,136.5C 67.6294,134.978 70.9627,134.145 74.5,134C 87.0068,133.831 99.3401,133.331 111.5,132.5 Z"/></g>
<g><path style="opacity:1" fill="#eccbee" d="M 177.5,201.5 C 177.833,201.5 178.167,201.5 178.5,201.5C 178.5,202.167 178.833,202.5 179.5,202.5C 182.407,205.868 183.073,209.535 181.5,213.5C 181.66,211.801 181.494,210.134 181,208.5C 179.274,206.409 178.107,204.076 177.5,201.5 Z"/></g>
<g><path style="opacity:1" fill="#773080" d="M 164.5,185.5 C 164.108,187.179 163.608,188.846 163,190.5C 160.991,192.01 159.158,193.677 157.5,195.5C 163.138,196.33 168.804,196.83 174.5,197C 177.072,197.432 178.406,198.932 178.5,201.5C 178.167,201.5 177.833,201.5 177.5,201.5C 176.653,200.034 175.32,199.2 173.5,199C 166.476,198.831 159.476,198.331 152.5,197.5C 156.188,193.146 160.188,189.146 164.5,185.5 Z"/></g>
<g><path style="opacity:1" fill="#722a7e" d="M 149.5,165.5 C 144.855,170.48 140.188,175.48 135.5,180.5C 134.669,172.855 134.169,165.188 134,157.5C 130.434,151.636 125.267,149.47 118.5,151C 114.897,153.098 112.23,155.932 110.5,159.5C 110.5,157.167 110.5,154.833 110.5,152.5C 114.577,151.549 118.41,149.882 122,147.5C 125.457,148.659 128.957,149.659 132.5,150.5C 132.998,152.664 134.164,154.331 136,155.5C 136.169,161.859 136.669,168.193 137.5,174.5C 138.251,173.624 138.751,172.624 139,171.5C 141.321,172.361 142.487,171.361 142.5,168.5C 143.5,168.5 144.5,168.5 145.5,168.5C 145.5,167.5 145.5,166.5 145.5,165.5C 146.833,165.5 148.167,165.5 149.5,165.5 Z"/></g>
<g><path style="opacity:1" fill="#712b7c" d="M 99.5,199.5 C 97.5648,200.15 95.5648,200.483 93.5,200.5C 95.9422,198.774 98.6089,197.274 101.5,196C 103.451,194.266 104.451,192.099 104.5,189.5C 105.659,179.342 105.825,169.008 105,158.5C 101.909,151.872 96.7427,149.372 89.5,151C 86.2608,152.736 83.9274,155.236 82.5,158.5C 81.6712,165.655 81.1712,172.989 81,180.5C 80.6174,179.944 80.1174,179.611 79.5,179.5C 78.1667,177.833 76.8333,176.167 75.5,174.5C 77.1172,175.038 78.7839,175.371 80.5,175.5C 80.3338,169.158 80.5005,162.825 81,156.5C 81.8456,154.153 83.3456,152.32 85.5,151C 93.7015,146.625 100.702,148.125 106.5,155.5C 107.644,166.453 107.811,177.453 107,188.5C 105.971,193.241 103.471,196.908 99.5,199.5 Z"/></g>
<g><path style="opacity:1" fill="#fcf9fc" d="M 149.5,165.5 C 154.664,160.504 159.997,155.671 165.5,151C 168.167,150.333 170.833,150.333 173.5,151C 182.627,154.749 184.794,160.916 180,169.5C 174.63,174.702 169.464,180.035 164.5,185.5C 160.188,189.146 156.188,193.146 152.5,197.5C 159.476,198.331 166.476,198.831 173.5,199C 175.32,199.2 176.653,200.034 177.5,201.5C 178.107,204.076 179.274,206.409 181,208.5C 181.494,210.134 181.66,211.801 181.5,213.5C 180.415,217.754 177.748,220.587 173.5,222C 163.172,222.5 152.839,222.666 142.5,222.5C 137.687,219.5 134.521,215.166 133,209.5C 128.635,203.797 123.135,199.63 116.5,197C 113.894,195.062 112.061,192.562 111,189.5C 110.5,179.506 110.334,169.506 110.5,159.5C 112.23,155.932 114.897,153.098 118.5,151C 125.267,149.47 130.434,151.636 134,157.5C 134.169,165.188 134.669,172.855 135.5,180.5C 140.188,175.48 144.855,170.48 149.5,165.5 Z"/></g>
<g><path style="opacity:1" fill="#fcfafc" d="M 75.5,174.5 C 76.8333,176.167 78.1667,177.833 79.5,179.5C 79.8212,181.048 80.8212,181.715 82.5,181.5C 82.5,173.833 82.5,166.167 82.5,158.5C 86.0514,155.618 90.0514,153.618 94.5,152.5C 99.1003,153.932 102.267,156.932 104,161.5C 104.5,170.827 104.666,180.161 104.5,189.5C 104.451,192.099 103.451,194.266 101.5,196C 98.6089,197.274 95.9422,198.774 93.5,200.5C 86.5579,204.672 81.7246,210.672 79,218.5C 77.8549,219.636 76.6883,220.636 75.5,221.5C 64.2128,222.623 52.8794,222.79 41.5,222C 35.627,218.061 33.4603,212.561 35,205.5C 36.1217,203.376 37.6217,201.543 39.5,200C 47.4189,198.895 55.4189,198.061 63.5,197.5C 61.1456,194.479 58.4789,191.812 55.5,189.5C 49.8695,183.369 44.0362,177.369 38,171.5C 34.7581,167.36 33.7581,162.694 35,157.5C 39.6227,150.06 45.7894,148.56 53.5,153C 60.7018,160.369 68.0351,167.536 75.5,174.5 Z"/></g>
<g><path style="opacity:1" fill="#d8b5e0" d="M 82.5,158.5 C 82.5,166.167 82.5,173.833 82.5,181.5C 80.8212,181.715 79.8212,181.048 79.5,179.5C 80.1174,179.611 80.6174,179.944 81,180.5C 81.1712,172.989 81.6712,165.655 82.5,158.5 Z"/></g>
<g><path style="opacity:1" fill="#f6def8" d="M 104.5,189.5 C 104.666,180.161 104.5,170.827 104,161.5C 102.267,156.932 99.1003,153.932 94.5,152.5C 90.0514,153.618 86.0514,155.618 82.5,158.5C 83.9274,155.236 86.2608,152.736 89.5,151C 96.7427,149.372 101.909,151.872 105,158.5C 105.825,169.008 105.659,179.342 104.5,189.5 Z"/></g>
<g><path style="opacity:1" fill="#782186" d="M 110.5,159.5 C 110.334,169.506 110.5,179.506 111,189.5C 112.061,192.562 113.894,195.062 116.5,197C 123.135,199.63 128.635,203.797 133,209.5C 134.521,215.166 137.687,219.5 142.5,222.5C 149.095,224.302 156.095,225.135 163.5,225C 155.812,225.169 148.145,225.669 140.5,226.5C 138.703,227.695 137.703,229.362 137.5,231.5C 134.844,236.81 131.677,241.81 128,246.5C 123.357,249.9 118.524,252.9 113.5,255.5C 113.323,253.019 114.323,251.186 116.5,250C 115.167,249.333 113.833,248.667 112.5,248C 113.955,245.984 115.955,245.151 118.5,245.5C 118.5,246.5 118.5,247.5 118.5,248.5C 120.167,248.5 121.833,248.5 123.5,248.5C 123.5,247.5 123.5,246.5 123.5,245.5C 122.127,245.657 120.793,245.49 119.5,245C 118.359,244.259 118.359,243.425 119.5,242.5C 122.681,241.771 125.681,241.771 128.5,242.5C 130.892,238.935 132.892,235.269 134.5,231.5C 132.339,231.826 130.506,232.826 129,234.5C 128.579,230.776 129.912,227.776 133,225.5C 133.788,223.835 134.122,222.169 134,220.5C 133.282,219.549 132.449,219.383 131.5,220C 130.24,222.268 128.906,224.434 127.5,226.5C 125.931,225.286 125.098,223.619 125,221.5C 124.005,224.77 123.172,228.103 122.5,231.5C 120.363,232.738 119.029,234.571 118.5,237C 118.966,238.299 118.966,239.799 118.5,241.5C 110.72,240.288 103.053,239.288 95.5,238.5C 97.8559,237.346 98.0226,236.013 96,234.5C 95.6667,235.167 95.3333,235.833 95,236.5C 93.3734,234.027 92.8734,231.527 93.5,229C 93.0946,228.055 92.428,227.388 91.5,227C 92.5762,225.274 92.7429,223.441 92,221.5C 91.6667,221.833 91.3333,222.167 91,222.5C 90.8133,220.109 89.98,218.942 88.5,219C 89.0223,218.05 89.689,217.216 90.5,216.5C 89.6072,213.916 89.2739,211.249 89.5,208.5C 90.8333,208.5 92.1667,208.5 93.5,208.5C 93.6984,206.425 93.8651,204.425 94,202.5C 86.4906,204.739 84.6572,209.239 88.5,216C 87.8742,216.75 87.3742,217.584 87,218.5C 86.5065,216.866 86.3398,215.199 86.5,213.5C 85.448,213.351 84.448,213.517 83.5,214C 82.2464,218.108 79.5798,220.608 75.5,221.5C 76.6883,220.636 77.8549,219.636 79,218.5C 81.7246,210.672 86.5579,204.672 93.5,200.5C 95.5648,200.483 97.5648,200.15 99.5,199.5C 98.713,201.104 97.3797,201.771 95.5,201.5C 95.5,202.833 95.5,204.167 95.5,205.5C 97.5643,205.313 99.5643,204.813 101.5,204C 102.369,201.632 104.035,200.132 106.5,199.5C 108.283,200.348 108.783,201.681 108,203.5C 106.301,204.406 104.467,204.739 102.5,204.5C 102.5,206.167 102.5,207.833 102.5,209.5C 99.4824,209.704 96.4824,210.037 93.5,210.5C 93.2011,212.604 93.5344,214.604 94.5,216.5C 95.9512,214.441 97.9512,213.441 100.5,213.5C 95.3143,218.598 94.1476,224.598 97,231.5C 102.475,238.037 108.975,239.204 116.5,235C 120.242,230.483 121.409,225.316 120,219.5C 115.99,213.024 110.157,210.691 102.5,212.5C 104.727,210.357 107.061,208.19 109.5,206C 110.951,206.263 112.284,206.096 113.5,205.5C 114.348,203.591 114.682,201.591 114.5,199.5C 110.901,199.738 110.567,198.738 113.5,196.5C 112.965,194.729 112.131,194.396 111,195.5C 110.667,194.167 110.333,192.833 110,191.5C 109.175,180.659 109.341,169.992 110.5,159.5 Z"/></g>
<g><path style="opacity:1" fill="#fbf7fb" d="M 102.5,212.5 C 110.157,210.691 115.99,213.024 120,219.5C 121.409,225.316 120.242,230.483 116.5,235C 108.975,239.204 102.475,238.037 97,231.5C 94.1476,224.598 95.3143,218.598 100.5,213.5C 101.492,213.672 102.158,213.338 102.5,212.5 Z"/></g>
<g><path style="opacity:0.305" fill="#0a0a0a" d="M 402.5,251.5 C 405.738,241.353 402.405,234.52 392.5,231C 385.842,230.5 379.175,230.334 372.5,230.5C 372.5,240.5 372.5,250.5 372.5,260.5C 378.167,260.5 383.833,260.5 389.5,260.5C 388.737,261.268 387.737,261.768 386.5,262C 379.174,262.5 371.841,262.666 364.5,262.5C 364.5,248.833 364.5,235.167 364.5,221.5C 371.841,221.334 379.174,221.5 386.5,222C 403.003,224.779 408.836,234.279 404,250.5C 403.617,251.056 403.117,251.389 402.5,251.5 Z"/></g>
<g><path style="opacity:1" fill="#762c82" d="M 179.5,202.5 C 181.411,202.574 182.578,203.574 183,205.5C 184.696,215.516 180.529,222.016 170.5,225C 178.662,226.993 182.996,232.16 183.5,240.5C 183.931,243.393 182.931,245.393 180.5,246.5C 181.726,242.367 181.726,238.367 180.5,234.5C 178.898,231.177 176.231,229.011 172.5,228C 162.658,227.175 152.991,227.342 143.5,228.5C 141.053,228.615 139.053,229.615 137.5,231.5C 137.703,229.362 138.703,227.695 140.5,226.5C 148.145,225.669 155.812,225.169 163.5,225C 156.095,225.135 149.095,224.302 142.5,222.5C 152.839,222.666 163.172,222.5 173.5,222C 177.748,220.587 180.415,217.754 181.5,213.5C 183.073,209.535 182.407,205.868 179.5,202.5 Z"/></g>
<g><path style="opacity:1" fill="#742b7f" d="M 55.5,189.5 C 58.4789,191.812 61.1456,194.479 63.5,197.5C 55.4189,198.061 47.4189,198.895 39.5,200C 37.6217,201.543 36.1217,203.376 35,205.5C 33.4603,212.561 35.627,218.061 41.5,222C 52.8794,222.79 64.2128,222.623 75.5,221.5C 75.4226,222.75 74.756,223.583 73.5,224C 71.1667,224.333 68.8333,224.667 66.5,225C 69.5224,225.098 72.1891,225.932 74.5,227.5C 63.8281,227.333 53.1615,227.5 42.5,228C 41.4734,228.513 40.4734,229.013 39.5,229.5C 40.1223,227.665 41.4556,226.498 43.5,226C 50.1667,225.667 56.8333,225.333 63.5,225C 55.4489,224.822 47.4489,224.156 39.5,223C 37.7585,221.38 35.9252,219.88 34,218.5C 33.5639,216.153 33.0639,213.819 32.5,211.5C 31.9776,205.037 34.6443,200.537 40.5,198C 47.1915,197.831 53.8581,197.331 60.5,196.5C 58.0392,194.71 56.3726,192.377 55.5,189.5 Z"/></g>
<g><path style="opacity:1" fill="#7c1b8a" d="M 113.5,255.5 C 111.019,255.323 109.186,256.323 108,258.5C 105.614,255.956 104.614,252.956 105,249.5C 108.535,253.493 109.368,252.826 107.5,247.5C 105.4,247.523 103.567,246.856 102,245.5C 100.238,245.944 100.405,246.444 102.5,247C 101.774,248.397 100.607,249.231 99,249.5C 93.0589,248.902 88.7255,245.902 86,240.5C 84.0517,236.137 82.2184,231.804 80.5,227.5C 78.5,227.5 76.5,227.5 74.5,227.5C 72.1891,225.932 69.5224,225.098 66.5,225C 68.8333,224.667 71.1667,224.333 73.5,224C 74.756,223.583 75.4226,222.75 75.5,221.5C 79.5798,220.608 82.2464,218.108 83.5,214C 84.448,213.517 85.448,213.351 86.5,213.5C 86.3398,215.199 86.5065,216.866 87,218.5C 87.3742,217.584 87.8742,216.75 88.5,216C 84.6572,209.239 86.4906,204.739 94,202.5C 93.8651,204.425 93.6984,206.425 93.5,208.5C 92.1667,208.5 90.8333,208.5 89.5,208.5C 89.2739,211.249 89.6072,213.916 90.5,216.5C 89.689,217.216 89.0223,218.05 88.5,219C 89.98,218.942 90.8133,220.109 91,222.5C 91.3333,222.167 91.6667,221.833 92,221.5C 92.7429,223.441 92.5762,225.274 91.5,227C 92.428,227.388 93.0946,228.055 93.5,229C 92.8734,231.527 93.3734,234.027 95,236.5C 95.3333,235.833 95.6667,235.167 96,234.5C 98.0226,236.013 97.8559,237.346 95.5,238.5C 103.053,239.288 110.72,240.288 118.5,241.5C 118.966,239.799 118.966,238.299 118.5,237C 119.029,234.571 120.363,232.738 122.5,231.5C 123.172,228.103 124.005,224.77 125,221.5C 125.098,223.619 125.931,225.286 127.5,226.5C 128.906,224.434 130.24,222.268 131.5,220C 132.449,219.383 133.282,219.549 134,220.5C 134.122,222.169 133.788,223.835 133,225.5C 129.912,227.776 128.579,230.776 129,234.5C 130.506,232.826 132.339,231.826 134.5,231.5C 132.892,235.269 130.892,238.935 128.5,242.5C 125.681,241.771 122.681,241.771 119.5,242.5C 118.359,243.425 118.359,244.259 119.5,245C 120.793,245.49 122.127,245.657 123.5,245.5C 123.5,246.5 123.5,247.5 123.5,248.5C 121.833,248.5 120.167,248.5 118.5,248.5C 118.5,247.5 118.5,246.5 118.5,245.5C 115.955,245.151 113.955,245.984 112.5,248C 113.833,248.667 115.167,249.333 116.5,250C 114.323,251.186 113.323,253.019 113.5,255.5 Z"/></g>
<g><path style="opacity:1" fill="#fcfafc" d="M 74.5,227.5 C 79.9446,231.028 83.4446,236.028 85,242.5C 90.0308,247.93 95.8642,252.264 102.5,255.5C 103.584,256.665 104.417,257.998 105,259.5C 105.667,270.167 105.667,280.833 105,291.5C 101.858,298.939 96.3583,301.439 88.5,299C 87.3066,297.905 85.9733,297.072 84.5,296.5C 83.8333,294.5 83.1667,292.5 82.5,290.5C 82.8303,283.468 82.497,276.468 81.5,269.5C 80.4777,269.855 79.811,270.522 79.5,271.5C 75.1667,275.167 71.1667,279.167 67.5,283.5C 62.6539,289.51 56.9872,294.677 50.5,299C 37.3581,300.185 32.5248,294.352 36,281.5C 44.672,271.662 53.8386,262.328 63.5,253.5C 64.0431,253.44 64.3764,253.107 64.5,252.5C 57.5316,251.503 50.5316,251.17 43.5,251.5C 42.0783,251.291 40.745,250.791 39.5,250C 32.8686,243.136 32.8686,236.303 39.5,229.5C 40.4734,229.013 41.4734,228.513 42.5,228C 53.1615,227.5 63.8281,227.333 74.5,227.5 Z"/></g>
<g><path style="opacity:1" fill="#fdfafc" d="M 143.5,228.5 C 152.506,228.334 161.506,228.5 170.5,229C 171.572,230.284 172.905,230.617 174.5,230C 176.095,232.102 178.095,233.602 180.5,234.5C 181.726,238.367 181.726,242.367 180.5,246.5C 178.567,248.596 176.233,250.096 173.5,251C 166.167,251.333 158.833,251.667 151.5,252C 161,261.5 170.5,271 180,280.5C 181.022,282.702 181.522,285.035 181.5,287.5C 180.505,297.324 175.172,301.158 165.5,299C 160.998,295.33 156.665,291.497 152.5,287.5C 146.87,281.369 141.036,275.369 135,269.5C 134.667,276.833 134.333,284.167 134,291.5C 130.473,299.261 124.639,301.594 116.5,298.5C 114.051,296.224 112.218,293.558 111,290.5C 110.333,280.167 110.333,269.833 111,259.5C 111.662,258.016 112.496,256.683 113.5,255.5C 118.524,252.9 123.357,249.9 128,246.5C 131.677,241.81 134.844,236.81 137.5,231.5C 139.053,229.615 141.053,228.615 143.5,228.5 Z"/></g>
<g><path style="opacity:1" fill="#f0d6f2" d="M 143.5,228.5 C 152.991,227.342 162.658,227.175 172.5,228C 176.231,229.011 178.898,231.177 180.5,234.5C 178.095,233.602 176.095,232.102 174.5,230C 172.905,230.617 171.572,230.284 170.5,229C 161.506,228.5 152.506,228.334 143.5,228.5 Z"/></g>
<g><path style="opacity:1" fill="#ac74b5" d="M 43.5,251.5 C 50.5316,251.17 57.5316,251.503 64.5,252.5C 64.3764,253.107 64.0431,253.44 63.5,253.5C 56.8333,252.833 50.1667,252.167 43.5,251.5 Z"/></g>
<g><path style="opacity:0.788" fill="#999797" d="M 515.5,252.5 C 514.432,255.897 512.099,257.897 508.5,258.5C 510.808,256.529 513.142,254.529 515.5,252.5 Z"/></g>
<g><path style="opacity:0.995" fill="#faf9fa" d="M 309.5,254.5 C 315.979,255.491 322.646,255.824 329.5,255.5C 329.5,264.167 329.5,272.833 329.5,281.5C 322.167,281.5 314.833,281.5 307.5,281.5C 307.5,273.167 307.5,264.833 307.5,256.5C 307.5,255.167 308.167,254.5 309.5,254.5 Z"/></g>
<g><path style="opacity:0.019" fill="#060606" d="M 467.5,256.5 C 468.793,255.842 470.293,255.508 472,255.5C 479.976,257.928 488.143,259.261 496.5,259.5C 500.217,259.424 503.883,259.091 507.5,258.5C 507.389,259.117 507.056,259.617 506.5,260C 493.153,262.522 480.153,261.355 467.5,256.5 Z"/></g>
<g><path style="opacity:1" fill="#f6f6f6" d="M 434.5,255.5 C 441.5,255.5 448.5,255.5 455.5,255.5C 455.5,264.5 455.5,273.5 455.5,282.5C 448.167,282.5 440.833,282.5 433.5,282.5C 433.196,273.416 433.529,264.416 434.5,255.5 Z"/></g>
<g><path style="opacity:0.396" fill="#626162" d="M 398.5,257.5 C 396.155,260.075 393.155,261.075 389.5,260.5C 392.341,259.331 395.341,258.331 398.5,257.5 Z"/></g>
<g><path style="opacity:0.415" fill="#b2aeb0" d="M 210.5,146.5 C 225.01,146.171 239.343,146.504 253.5,147.5C 238.833,147.5 224.167,147.5 209.5,147.5C 209.5,191.833 209.5,236.167 209.5,280.5C 217.167,280.5 224.833,280.5 232.5,280.5C 232.17,261.992 232.503,243.659 233.5,225.5C 233.5,244.167 233.5,262.833 233.5,281.5C 225.167,281.5 216.833,281.5 208.5,281.5C 208.832,236.997 208.499,192.664 207.5,148.5C 207.973,147.094 208.973,146.427 210.5,146.5 Z"/></g>
<g><path style="opacity:1" fill="#782e82" d="M 79.5,271.5 C 81.1489,277.601 82.1489,283.935 82.5,290.5C 83.1667,292.5 83.8333,294.5 84.5,296.5C 83.6236,296.631 82.9569,296.298 82.5,295.5C 80.6869,289.323 80.0202,282.99 80.5,276.5C 79.1266,276.343 77.7932,276.51 76.5,277C 74.4642,280.54 71.4642,282.707 67.5,283.5C 71.1667,279.167 75.1667,275.167 79.5,271.5 Z"/></g>
<g><path style="opacity:1" fill="#9e6fa4" d="M 82.5,290.5 C 82.1489,283.935 81.1489,277.601 79.5,271.5C 79.811,270.522 80.4777,269.855 81.5,269.5C 82.497,276.468 82.8303,283.468 82.5,290.5 Z"/></g>
<g><path style="opacity:0.14" fill="#080808" d="M 248.5,288.5 C 251.551,287.168 254.551,287.501 257.5,289.5C 257.666,293.514 257.499,297.514 257,301.5C 254.713,297.235 252.213,293.235 249.5,289.5C 249.5,288.833 249.167,288.5 248.5,288.5 Z"/></g>
<g><path style="opacity:0.891" fill="#e1dde0" d="M 311.5,288.5 C 315.007,287.994 318.174,288.66 321,290.5C 321.749,291.635 321.583,292.635 320.5,293.5C 319.071,292.065 317.405,291.065 315.5,290.5C 312.604,291.024 311.937,292.524 313.5,295C 316.512,295.78 319.345,296.947 322,298.5C 322.746,305.571 319.579,308.071 312.5,306C 309.785,305.125 308.452,303.292 308.5,300.5C 310.844,301.983 313.344,303.316 316,304.5C 319.003,304.257 320.17,302.59 319.5,299.5C 311.053,299.442 308.386,295.775 311.5,288.5 Z"/></g>
<g><path style="opacity:0.986" fill="#e3dee2" d="M 386.5,288.5 C 391.214,288.173 395.88,288.507 400.5,289.5C 398.955,290.452 397.288,290.785 395.5,290.5C 395.5,295.833 395.5,301.167 395.5,306.5C 394.5,306.5 393.5,306.5 392.5,306.5C 392.5,301.167 392.5,295.833 392.5,290.5C 389.918,290.975 387.918,290.308 386.5,288.5 Z"/></g>
<g><path style="opacity:0.873" fill="#e0dde0" d="M 433.5,288.5 C 437.741,287.75 441.074,289.083 443.5,292.5C 441.438,293.761 439.772,293.261 438.5,291C 437.167,290.333 435.833,290.333 434.5,291C 431.606,293.909 430.773,297.409 432,301.5C 433.062,302.899 434.395,303.899 436,304.5C 438.343,302.726 440.843,301.392 443.5,300.5C 443.703,302.39 443.037,303.89 441.5,305C 431.584,307.69 427.25,303.856 428.5,293.5C 429.167,290.833 430.833,289.167 433.5,288.5 Z"/></g>
<g><path style="opacity:0.975" fill="#dfd9df" d="M 522.5,288.5 C 527.214,288.173 531.88,288.507 536.5,289.5C 534.659,290.23 532.825,290.897 531,291.5C 530.829,296.533 530.329,301.533 529.5,306.5C 528.914,306.291 528.414,305.957 528,305.5C 527.501,300.511 527.334,295.511 527.5,290.5C 525.219,290.923 523.552,290.256 522.5,288.5 Z"/></g>
<g><path style="opacity:0.999" fill="#e0dce0" d="M 352.5,288.5 C 356.884,288.174 361.217,288.508 365.5,289.5C 362.232,290.487 358.898,290.82 355.5,290.5C 355.5,292.5 355.5,294.5 355.5,296.5C 367.5,297.167 367.5,297.833 355.5,298.5C 355.5,300.5 355.5,302.5 355.5,304.5C 358.898,304.18 362.232,304.513 365.5,305.5C 361.217,306.492 356.884,306.826 352.5,306.5C 352.5,300.5 352.5,294.5 352.5,288.5 Z"/></g>
<g><path style="opacity:0.99" fill="#e1dee0" d="M 369.5,288.5 C 370.978,288.238 372.311,288.571 373.5,289.5C 375.329,293.828 377.662,297.828 380.5,301.5C 381.274,297.208 381.274,292.875 380.5,288.5C 381.5,288.5 382.5,288.5 383.5,288.5C 383.5,294.5 383.5,300.5 383.5,306.5C 382.178,306.67 381.011,306.337 380,305.5C 377.916,301.664 375.583,297.997 373,294.5C 372.501,298.486 372.334,302.486 372.5,306.5C 371.5,306.5 370.5,306.5 369.5,306.5C 369.5,300.5 369.5,294.5 369.5,288.5 Z"/></g>
<g><path style="opacity:0.905" fill="#e5e2e4" d="M 273.5,288.5 C 277.514,288.334 281.514,288.501 285.5,289C 288.592,293.118 287.925,296.451 283.5,299C 285.53,300.896 287.197,303.063 288.5,305.5C 288,305.833 287.5,306.167 287,306.5C 284.723,304.126 282.557,301.626 280.5,299C 279.207,298.51 277.873,298.343 276.5,298.5C 276.813,301.247 276.48,303.914 275.5,306.5C 274.914,306.291 274.414,305.957 274,305.5C 273.501,300.511 273.334,295.511 273.5,290.5C 273.5,289.833 273.5,289.167 273.5,288.5 Z"/></g>
<g><path style="opacity:0.275" fill="#09090a" d="M 277.5,290.5 C 280.908,289.828 283.575,290.828 285.5,293.5C 285.023,294.478 284.357,295.311 283.5,296C 281.19,296.497 278.857,296.663 276.5,296.5C 276.325,294.379 276.659,292.379 277.5,290.5 Z"/></g>
<g><path style="opacity:0.976" fill="#dbd8da" d="M 260.5,288.5 C 260.5,294.5 260.5,300.5 260.5,306.5C 258.61,306.703 257.11,306.037 256,304.5C 254.058,300.931 251.892,297.598 249.5,294.5C 248.677,297.977 248.177,301.644 248,305.5C 247.833,302.833 247.667,300.167 247.5,297.5C 247.522,294.41 248.188,291.743 249.5,289.5C 252.213,293.235 254.713,297.235 257,301.5C 257.499,297.514 257.666,293.514 257.5,289.5C 258.209,288.596 259.209,288.263 260.5,288.5 Z"/></g>
<g><path style="opacity:0.549" fill="#d4d1d4" d="M 326.5,288.5 C 327.5,288.5 328.5,288.5 329.5,288.5C 329.5,294.5 329.5,300.5 329.5,306.5C 328.5,306.5 327.5,306.5 326.5,306.5C 326.5,300.5 326.5,294.5 326.5,288.5 Z"/></g>
<g><path style="opacity:0.996" fill="#e6e3e6" d="M 343.5,305.5 C 340.5,305.5 337.5,305.5 334.5,305.5C 334.819,300.637 334.486,295.97 333.5,291.5C 333.5,290.5 333.5,289.5 333.5,288.5C 345.154,286.322 349.988,290.989 348,302.5C 346.871,304.141 345.371,305.141 343.5,305.5 Z"/></g>
<g><path style="opacity:0.242" fill="#090909" d="M 337.5,290.5 C 342.843,289.94 345.509,292.273 345.5,297.5C 345.08,302.899 342.08,305.233 336.5,304.5C 336.226,299.737 336.559,295.07 337.5,290.5 Z"/></g>
<g><path style="opacity:1" fill="#772484" d="M 74.5,227.5 C 76.5,227.5 78.5,227.5 80.5,227.5C 82.2184,231.804 84.0517,236.137 86,240.5C 88.7255,245.902 93.0589,248.902 99,249.5C 100.607,249.231 101.774,248.397 102.5,247C 100.405,246.444 100.238,245.944 102,245.5C 103.567,246.856 105.4,247.523 107.5,247.5C 109.368,252.826 108.535,253.493 105,249.5C 104.614,252.956 105.614,255.956 108,258.5C 109.186,256.323 111.019,255.323 113.5,255.5C 112.496,256.683 111.662,258.016 111,259.5C 110.333,269.833 110.333,280.167 111,290.5C 112.218,293.558 114.051,296.224 116.5,298.5C 124.639,301.594 130.473,299.261 134,291.5C 134.333,284.167 134.667,276.833 135,269.5C 141.036,275.369 146.87,281.369 152.5,287.5C 150.42,286.956 148.42,286.122 146.5,285C 145.663,283.989 145.33,282.822 145.5,281.5C 142.439,279.956 139.606,277.956 137,275.5C 136.337,280.537 136.504,285.537 137.5,290.5C 139.958,290.227 141.625,291.227 142.5,293.5C 140.92,296.629 138.586,297.463 135.5,296C 133.792,298.043 131.792,299.71 129.5,301C 124.5,301.333 119.5,301.667 114.5,302C 115.517,303.049 115.684,304.216 115,305.5C 113.34,305.676 111.674,305.009 110,303.5C 108.54,301.028 107.54,298.361 107,295.5C 102.784,297.692 98.6178,300.026 94.5,302.5C 91.8908,301.77 89.2241,301.27 86.5,301C 85.4178,299.67 84.7512,298.17 84.5,296.5C 85.9733,297.072 87.3066,297.905 88.5,299C 96.3583,301.439 101.858,298.939 105,291.5C 105.667,280.833 105.667,270.167 105,259.5C 104.417,257.998 103.584,256.665 102.5,255.5C 95.8642,252.264 90.0308,247.93 85,242.5C 83.4446,236.028 79.9446,231.028 74.5,227.5 Z"/></g>
<g><path style="opacity:0.643" fill="#b4b2b4" d="M 248.5,288.5 C 249.167,288.5 249.5,288.833 249.5,289.5C 248.188,291.743 247.522,294.41 247.5,297.5C 247.667,300.167 247.833,302.833 248,305.5C 248.177,301.644 248.677,297.977 249.5,294.5C 249.5,298.5 249.5,302.5 249.5,306.5C 248.5,306.5 247.5,306.5 246.5,306.5C 246.5,300.833 246.5,295.167 246.5,289.5C 246.842,288.662 247.508,288.328 248.5,288.5 Z"/></g>
<g><path style="opacity:0.51" fill="#999698" d="M 497.5,289.5 C 498.209,288.596 499.209,288.263 500.5,288.5C 500.819,293.363 500.486,298.03 499.5,302.5C 500.097,297.706 499.43,293.373 497.5,289.5 Z"/></g>
<g><path style="opacity:0.412" fill="#7d7a7d" d="M 516.5,289.5 C 517.209,288.596 518.209,288.263 519.5,288.5C 519.822,294.358 519.489,300.025 518.5,305.5C 519.113,299.729 518.446,294.396 516.5,289.5 Z"/></g>
<g><path style="opacity:0.996" fill="#e7e2e6" d="M 292.5,288.5 C 296.884,288.174 301.217,288.508 305.5,289.5C 302.232,290.487 298.898,290.82 295.5,290.5C 295.5,292.5 295.5,294.5 295.5,296.5C 307.5,297.167 307.5,297.833 295.5,298.5C 295.5,300.5 295.5,302.5 295.5,304.5C 298.898,304.18 302.232,304.513 305.5,305.5C 301.217,306.492 296.884,306.826 292.5,306.5C 292.5,300.5 292.5,294.5 292.5,288.5 Z"/></g>
<g><path style="opacity:0.978" fill="#d9d6d8" d="M 459.5,300.5 C 461.981,301.696 461.981,303.196 459.5,305C 452.588,307.578 448.255,305.245 446.5,298C 447.577,289.127 452.244,286.46 460.5,290C 461.731,291.183 461.731,292.349 460.5,293.5C 454.88,288.871 451.547,290.037 450.5,297C 449.779,301.935 451.779,304.268 456.5,304C 457.71,302.961 458.71,301.794 459.5,300.5 Z"/></g>
<g><path style="opacity:0.933" fill="#ddd8dc" d="M 208.5,288.5 C 209.675,288.281 210.675,288.614 211.5,289.5C 213.258,293.354 215.258,297.021 217.5,300.5C 217.56,301.043 217.893,301.376 218.5,301.5C 219.797,299.027 219.797,296.693 218.5,294.5C 218.5,292.5 218.5,290.5 218.5,288.5C 219.5,288.5 220.5,288.5 221.5,288.5C 221.5,294.5 221.5,300.5 221.5,306.5C 220.178,306.67 219.011,306.337 218,305.5C 215.916,301.664 213.583,297.997 211,294.5C 210.501,298.486 210.334,302.486 210.5,306.5C 209.5,306.5 208.5,306.5 207.5,306.5C 207.5,301.167 207.5,295.833 207.5,290.5C 207.328,289.508 207.662,288.842 208.5,288.5 Z"/></g>
<g><path style="opacity:0.333" fill="#6c686b" d="M 218.5,294.5 C 219.797,296.693 219.797,299.027 218.5,301.5C 217.893,301.376 217.56,301.043 217.5,300.5C 218.461,298.735 218.795,296.735 218.5,294.5 Z"/></g>
<g><path style="opacity:0.955" fill="#cfccce" d="M 417.5,288.5 C 420.91,293.687 423.577,299.354 425.5,305.5C 424.998,306.521 424.332,306.688 423.5,306C 422.833,305 422.167,304 421.5,303C 418.518,302.502 415.518,302.335 412.5,302.5C 412.778,304.346 412.111,305.68 410.5,306.5C 409.571,305.311 409.238,303.978 409.5,302.5C 410.709,298.411 412.209,294.411 414,290.5C 414.816,289.177 415.983,288.511 417.5,288.5 Z"/></g>
<g><path style="opacity:0.297" fill="#0c0c0c" d="M 416.5,292.5 C 419.276,294.439 419.943,296.939 418.5,300C 417.207,300.49 415.873,300.657 414.5,300.5C 414.963,297.779 415.629,295.112 416.5,292.5 Z"/></g>
<g><path style="opacity:0.991" fill="#e9e5e9" d="M 497.5,289.5 C 499.43,293.373 500.097,297.706 499.5,302.5C 498.485,305.436 496.318,306.769 493,306.5C 490.333,306.833 488.333,305.833 487,303.5C 486.501,298.511 486.334,293.511 486.5,288.5C 487.5,288.5 488.5,288.5 489.5,288.5C 489.334,293.511 489.501,298.511 490,303.5C 493.086,305.22 495.419,304.553 497,301.5C 497.499,297.514 497.666,293.514 497.5,289.5 Z"/></g>
<g><path style="opacity:0.971" fill="#dbd7da" d="M 229.5,288.5 C 239.659,287.158 243.826,291.491 242,301.5C 240.471,304.934 237.804,306.6 234,306.5C 226.56,305.309 223.893,300.975 226,293.5C 226.997,291.677 228.164,290.01 229.5,288.5 Z"/></g>
<g><path style="opacity:0.204" fill="#050405" d="M 232.5,290.5 C 236.919,290.419 239.252,292.586 239.5,297C 239.748,301.353 237.748,303.853 233.5,304.5C 229.899,303.564 228.233,301.23 228.5,297.5C 228.197,294.156 229.53,291.822 232.5,290.5 Z"/></g>
<g><path style="opacity:0.561" fill="#d5d4d6" d="M 264.5,299.5 C 266.604,299.201 268.604,299.534 270.5,300.5C 269.5,300.833 268.5,301.167 267.5,301.5C 265.97,301.36 264.97,300.693 264.5,299.5 Z"/></g>
<g><path style="opacity:0.941" fill="#e3dfe2" d="M 469.5,288.5 C 481.044,287.587 484.877,292.587 481,303.5C 476.333,307.5 471.667,307.5 467,303.5C 464.712,298.479 465.212,293.812 468.5,289.5C 469.167,289.5 469.5,289.167 469.5,288.5 Z"/></g>
<g><path style="opacity:0.198" fill="#030303" d="M 472.5,290.5 C 478.795,290.984 480.961,294.317 479,300.5C 476.177,305.395 472.843,305.729 469,301.5C 467.663,296.872 468.83,293.205 472.5,290.5 Z"/></g>
<g><path style="opacity:0.995" fill="#ebe8ea" d="M 516.5,289.5 C 518.446,294.396 519.113,299.729 518.5,305.5C 517.614,306.776 516.614,306.776 515.5,305.5C 513.403,301.628 511.069,297.961 508.5,294.5C 507.833,298.5 507.167,302.5 506.5,306.5C 505.504,300.537 505.171,294.537 505.5,288.5C 506.822,288.33 507.989,288.663 509,289.5C 510.829,293.828 513.162,297.828 516,301.5C 516.499,297.514 516.666,293.514 516.5,289.5 Z"/></g>
<g><path style="opacity:0.663" fill="#9c9a9b" d="M 333.5,291.5 C 334.486,295.97 334.819,300.637 334.5,305.5C 337.5,305.5 340.5,305.5 343.5,305.5C 340.375,306.479 337.042,306.813 333.5,306.5C 333.5,301.5 333.5,296.5 333.5,291.5 Z"/></g>
<g><path style="opacity:1" fill="#6e1f77" d="M 37.5,305.5 C 39.3911,306.536 41.2245,306.536 43,305.5C 43.4083,307.41 44.5749,308.41 46.5,308.5C 52.038,307.987 57.7047,307.987 63.5,308.5C 60.8929,309.318 58.2263,309.818 55.5,310C 57.3921,310.973 59.3921,311.64 61.5,312C 92.8253,313.833 124.159,314 155.5,312.5C 151.353,313.325 147.019,313.825 142.5,314C 119.833,314.667 97.1667,314.667 74.5,314C 62.7933,314.042 51.46,312.042 40.5,308C 39.0577,307.623 38.0577,306.79 37.5,305.5 Z"/></g>
</svg>
